<svg width="26" height="33" viewBox="0 0 26 33" fill="none" xmlns="http://www.w3.org/2000/svg">
<path d="M13 0C9.55219 0 6.24558 1.36963 3.80761 3.8076C1.36964 6.24557 0 9.55219 0 13C0 19.18 6.7 26.6 12.33 31.74L13.02 32.37L13.69 31.72C19.92 25.72 26 19.35 26 13C26 9.55219 24.6304 6.24557 22.1924 3.8076C19.7544 1.36963 16.4478 0 13 0ZM13 29.62C5.91 23 2 17.12 2 13C2 10.0826 3.15892 7.28472 5.22182 5.22182C7.28472 3.15892 10.0826 2 13 2C15.9174 2 18.7153 3.15892 20.7782 5.22182C22.8411 7.28472 24 10.0826 24 13C24 18.35 18.66 24.09 13 29.62Z" fill="white"/>
<path d="M13 8C12.0111 8 11.0444 8.29324 10.2221 8.84265C9.3999 9.39206 8.75904 10.1729 8.3806 11.0866C8.00216 12.0002 7.90315 13.0055 8.09608 13.9754C8.289 14.9454 8.7652 15.8363 9.46446 16.5355C10.1637 17.2348 11.0546 17.711 12.0246 17.9039C12.9945 18.0968 13.9998 17.9978 14.9134 17.6194C15.827 17.241 16.6079 16.6001 17.1573 15.7778C17.7068 14.9556 18 13.9889 18 13C18 11.6739 17.4732 10.4021 16.5355 9.46446C15.5979 8.52678 14.3261 8 13 8ZM13 16C12.4067 16 11.8266 15.824 11.3333 15.4944C10.8399 15.1648 10.4554 14.6962 10.2284 14.148C10.0013 13.5999 9.94189 12.9967 10.0576 12.4147C10.1734 11.8328 10.4591 11.2982 10.8787 10.8787C11.2982 10.4591 11.8328 10.1734 12.4147 10.0576C12.9967 9.94189 13.5999 10.0013 14.148 10.2284C14.6962 10.4554 15.1648 10.8399 15.4944 11.3333C15.8241 11.8266 16 12.4067 16 13C16 13.7956 15.6839 14.5587 15.1213 15.1213C14.5587 15.6839 13.7957 16 13 16Z" fill="white"/>
</svg>
