<svg width="31" height="31" viewBox="0 0 31 31" fill="none" xmlns="http://www.w3.org/2000/svg">
<path d="M30.4002 13.5531C27.7965 7.47099 22.9358 2.63538 16.8402 0.0631424C16.5948 -0.0284981 16.3231 -0.0201091 16.0837 0.0864883C15.8443 0.193086 15.6564 0.389381 15.5602 0.63315C15.5079 0.755132 15.4803 0.886328 15.4792 1.01908C15.478 1.15182 15.5033 1.28346 15.5536 1.40633C15.6038 1.5292 15.6781 1.64083 15.7719 1.73471C15.8658 1.82859 15.9774 1.90285 16.1003 1.95314C21.7191 4.32697 26.1994 8.7858 28.6003 14.3931C28.7076 14.6309 28.9036 14.8174 29.1465 14.9126C29.3894 15.0079 29.6598 15.0045 29.9002 14.9032C30.0233 14.8493 30.1343 14.7711 30.2265 14.6734C30.3188 14.5757 30.3904 14.4604 30.437 14.3344C30.4837 14.2084 30.5045 14.0742 30.4982 13.94C30.4919 13.8058 30.4585 13.6742 30.4002 13.5531Z" fill="white"/>
<path d="M15.5803 7.35315C18.9861 8.78773 21.7032 11.4869 23.1603 14.8831C23.2376 15.0507 23.3599 15.1935 23.5134 15.2959C23.667 15.3983 23.8459 15.4562 24.0303 15.4631C24.1653 15.4621 24.2984 15.4314 24.4203 15.3732C24.6502 15.2605 24.8282 15.0639 24.9175 14.8239C25.0068 14.5839 25.0006 14.3187 24.9003 14.0831C23.2487 10.2272 20.1658 7.16223 16.3003 5.53314C16.0622 5.44864 15.801 5.45735 15.5691 5.55752C15.3373 5.65769 15.1519 5.84191 15.0503 6.07315C14.9562 6.31366 14.9589 6.5812 15.0577 6.81979C15.1565 7.05838 15.3437 7.2495 15.5803 7.35315Z" fill="white"/>
<path d="M25.2103 19.2331C24.9934 18.9798 24.7242 18.7763 24.4213 18.6369C24.1183 18.4974 23.7888 18.4252 23.4553 18.4252C23.1217 18.4252 22.7922 18.4974 22.4892 18.6369C22.1863 18.7763 21.9171 18.9798 21.7002 19.2331C20.8802 20.0431 20.0603 20.8631 19.2503 21.6931C19.2142 21.7466 19.1678 21.7922 19.1138 21.8273C19.0597 21.8624 18.9992 21.8862 18.9357 21.8974C18.8723 21.9086 18.8072 21.907 18.7444 21.8925C18.6816 21.878 18.6224 21.851 18.5703 21.8131C18.0403 21.5231 17.4703 21.2931 16.9603 20.9731C14.6199 19.4564 12.5455 17.5644 10.8203 15.3732C9.91951 14.3112 9.17528 13.1259 8.61025 11.8531C8.54881 11.7476 8.5281 11.6233 8.55205 11.5035C8.576 11.3838 8.64295 11.2769 8.74025 11.2031C9.56025 10.4031 10.3602 9.59315 11.1702 8.77315C11.4346 8.55356 11.6473 8.27844 11.7934 7.96735C11.9394 7.65625 12.0151 7.3168 12.0151 6.97314C12.0151 6.62949 11.9394 6.29006 11.7934 5.97896C11.6473 5.66786 11.4346 5.39273 11.1702 5.17314C10.5302 4.52314 9.89025 3.89315 9.24025 3.24315L7.24025 1.24315C7.01536 1.0022 6.74488 0.808295 6.44448 0.672684C6.14407 0.537072 5.81972 0.462445 5.49025 0.45314C5.15867 0.464069 4.8325 0.540374 4.53048 0.677658C4.22845 0.814942 3.95651 1.01051 3.73024 1.25314C2.90024 2.06314 2.11024 2.90314 1.26024 3.70314C0.511902 4.40893 0.0642502 5.3759 0.0102587 6.40315C-0.0609777 8.08786 0.239468 9.76759 0.890264 11.3232C2.13754 14.5569 3.93392 17.5509 6.20025 20.1731C9.18075 23.7551 12.8941 26.6569 17.0903 28.6832C18.9518 29.6667 20.9924 30.2652 23.0903 30.4431H23.4802C24.1207 30.4702 24.7591 30.3542 25.3491 30.1033C25.939 29.8525 26.4655 29.4732 26.8902 28.9931C27.5903 28.2031 28.3803 27.4831 29.1303 26.7331C29.3896 26.5125 29.5979 26.2382 29.7408 25.9291C29.8836 25.6201 29.9576 25.2836 29.9576 24.9431C29.9576 24.6027 29.8836 24.2662 29.7408 23.9572C29.5979 23.6481 29.3896 23.3738 29.1303 23.1532C27.8369 21.8465 26.5303 20.5398 25.2103 19.2331ZM27.7302 25.3431L26.9802 26.0831C26.4602 26.5831 25.9303 27.0831 25.4103 27.6731C25.1761 27.9453 24.8812 28.1587 24.5495 28.2959C24.2177 28.4331 23.8583 28.4904 23.5003 28.4632H23.2203C21.3807 28.3044 19.5919 27.7772 17.9603 26.9131C14.0237 24.9987 10.5372 22.2722 7.73024 18.9131C5.59653 16.4711 3.90456 13.676 2.73024 10.6532C2.18189 9.37203 1.92243 7.98586 1.97027 6.59314C1.99316 6.05804 2.22254 5.55266 2.61025 5.18315C3.13025 4.68315 3.61025 4.18314 4.14025 3.67314L5.14025 2.67314C5.173 2.60551 5.22416 2.54848 5.28783 2.50858C5.3515 2.46867 5.42512 2.44751 5.50026 2.44751C5.57541 2.44751 5.64903 2.46867 5.7127 2.50858C5.77637 2.54848 5.8275 2.60551 5.86025 2.67314C6.30025 3.10314 6.73027 3.54314 7.16027 3.98314L7.82027 4.64314L8.82027 5.64314L9.77025 6.59314C10.1403 6.96314 10.1203 7.03315 9.77025 7.37315L9.43026 7.71315C8.75026 8.41315 8.06026 9.09315 7.34026 9.79315C6.96426 10.1503 6.70916 10.616 6.61055 11.1251C6.51195 11.6342 6.57479 12.1614 6.79027 12.6331C7.42141 14.0827 8.2639 15.4307 9.29027 16.6331C11.1592 18.9842 13.4025 21.0113 15.9303 22.6331C16.3203 22.8731 16.7203 23.0731 17.0703 23.2431L17.6103 23.5132C17.9921 23.7387 18.4268 23.8594 18.8703 23.8631C19.2156 23.8614 19.5567 23.7876 19.8718 23.6464C20.187 23.5052 20.4691 23.2997 20.7002 23.0432C21.4902 22.2332 22.2903 21.4431 23.1303 20.6131C23.2158 20.5018 23.3351 20.4211 23.4703 20.3831C23.6101 20.4169 23.7338 20.4982 23.8203 20.6131C25.1536 21.9465 26.4869 23.2565 27.8203 24.5432C28.0503 24.8932 28.0802 24.9831 27.7302 25.3431Z" fill="white"/>
</svg>
