<svg width="205" height="205" viewBox="0 0 205 205" fill="none" xmlns="http://www.w3.org/2000/svg">
<path d="M102.44 204.49H101.99C45.7531 204.49 0 158.723 0 102.47V102.02C0 45.7667 45.7531 0 101.99 0H102.44C158.676 0 204.429 45.7667 204.429 102.02V102.47C204.429 158.723 158.676 204.49 102.44 204.49ZM101.99 6.92176C49.5659 6.92176 6.91972 49.5806 6.91972 102.02V102.47C6.91972 154.909 49.5659 197.568 101.99 197.568H102.44C154.863 197.568 197.51 154.909 197.51 102.47V102.02C197.51 49.5806 154.863 6.92176 102.44 6.92176H101.99Z" fill="#00B0F2"/>
<path d="M40.8677 98.8775C41.1445 98.7391 41.4214 98.6076 41.6913 98.483C46.3829 96.3096 51.1367 94.2746 55.8837 92.2396C56.1397 92.2396 56.5686 91.9419 56.8108 91.845C57.1775 91.6858 57.5443 91.5335 57.9111 91.3743C58.6169 91.0698 59.3228 90.7721 60.0216 90.4675C61.4333 89.8654 62.8379 89.2632 64.2495 88.661C67.0658 87.4566 69.8821 86.2522 72.6985 85.0409C78.3311 82.6321 83.9708 80.2165 89.6035 77.8077C95.2361 75.3989 100.876 72.9832 106.508 70.5744C112.141 68.1656 117.78 65.75 123.413 63.3412C129.046 60.9324 134.685 58.5167 140.318 56.1079C141.571 55.568 142.927 54.7652 144.269 54.5298C145.397 54.3291 146.497 53.9414 147.632 53.7269C149.784 53.3185 152.158 53.1523 154.22 54.0452C154.932 54.3567 155.59 54.7928 156.137 55.3396C158.752 57.9283 158.385 62.1783 157.832 65.8192C153.978 91.1943 150.123 116.576 146.262 141.952C145.736 145.433 145.017 149.254 142.269 151.455C139.944 153.317 136.637 153.525 133.765 152.736C130.893 151.94 128.361 150.272 125.877 148.631C115.573 141.806 105.263 134.981 94.9593 128.157C92.5097 126.537 89.7834 124.419 89.8111 121.477C89.8249 119.705 90.8836 118.127 91.963 116.722C100.917 105.038 113.836 97.0086 123.448 85.8646C124.804 84.2933 125.87 81.4554 124.008 80.5487C122.901 80.0088 121.628 80.7425 120.618 81.4416C107.913 90.2669 95.2154 99.099 82.5107 107.924C78.3658 110.804 74.0203 113.766 69.0242 114.472C64.5541 115.109 60.0563 113.863 55.7314 112.59C52.1055 111.524 48.4864 110.43 44.8812 109.302C42.9644 108.706 40.9854 108.063 39.5046 106.713C38.0237 105.363 37.1727 103.093 38.0654 101.293C38.6259 100.165 39.7123 99.452 40.854 98.8706L40.8677 98.8775Z" fill="#00B0F2"/>
</svg>
