<svg width="205" height="205" viewBox="0 0 205 205" fill="none" xmlns="http://www.w3.org/2000/svg">
<path d="M102.44 204.49H101.99C45.7532 204.49 0 158.723 0 102.47V102.02C0 45.7667 45.7532 0 101.99 0H102.44C158.676 0 204.429 45.7667 204.429 102.02V102.47C204.429 158.723 158.676 204.49 102.44 204.49ZM101.99 6.92176C49.566 6.92176 6.91972 49.5806 6.91972 102.02V102.47C6.91972 154.909 49.566 197.568 101.99 197.568H102.44C154.863 197.568 197.51 154.909 197.51 102.47V102.02C197.51 49.5806 154.863 6.92176 102.44 6.92176H101.99Z" fill="#00E510"/>
<path d="M121.469 131.14C96.1911 131.14 75.6256 110.561 75.6187 85.2762C75.6256 78.8666 80.8431 73.6546 87.237 73.6546C87.8943 73.6546 88.5447 73.71 89.1675 73.8207C90.5376 74.0491 91.8386 74.5129 93.0357 75.212C93.2087 75.3158 93.3263 75.4819 93.354 75.6757L96.025 92.5164C96.0596 92.7102 95.9973 92.9109 95.8658 93.0562C94.3919 94.6898 92.5098 95.8665 90.4131 96.4549L89.4028 96.7387L89.7834 97.7146C93.2294 106.491 100.246 113.503 109.027 116.964L110.003 117.352L110.287 116.341C110.875 114.244 112.051 112.361 113.684 110.887C113.802 110.776 113.961 110.721 114.12 110.721C114.155 110.721 114.189 110.721 114.231 110.728L131.066 113.399C131.267 113.434 131.433 113.545 131.537 113.718C132.229 114.915 132.693 116.223 132.928 117.594C133.039 118.203 133.087 118.847 133.087 119.518C133.087 125.921 127.876 131.133 121.469 131.14Z" fill="#00E510"/>
<path d="M166.295 96.6971C164.932 81.2892 157.874 66.9958 146.421 56.454C134.9 45.8498 119.953 40.0078 104.322 40.0078C70.0137 40.0078 42.0996 67.9303 42.0996 102.248C42.0996 113.766 45.2757 124.986 51.289 134.76L37.8785 164.454L80.8155 159.879C88.2818 162.938 96.1841 164.489 104.315 164.489C106.453 164.489 108.647 164.378 110.847 164.15C112.785 163.942 114.743 163.637 116.667 163.25C145.397 157.442 166.371 131.936 166.537 102.581V102.248C166.537 100.379 166.454 98.5106 166.288 96.704L166.295 96.6971ZM82.4693 146.845L58.7139 149.379L65.8066 133.659L64.388 131.756C64.2842 131.617 64.1805 131.479 64.0628 131.32C57.9043 122.813 54.6519 112.763 54.6519 102.255C54.6519 74.8589 76.9335 52.5709 104.322 52.5709C129.98 52.5709 151.729 72.5955 153.825 98.1576C153.936 99.5281 153.998 100.906 153.998 102.262C153.998 102.65 153.992 103.03 153.985 103.439C153.459 126.357 137.453 145.821 115.061 150.777C113.352 151.158 111.601 151.448 109.858 151.635C108.045 151.843 106.183 151.947 104.336 151.947C97.7549 151.947 91.3611 150.673 85.3202 148.153C84.649 147.883 83.9916 147.593 83.3757 147.295L82.4762 146.859L82.4693 146.845Z" fill="#00E510"/>
</svg>
